# xmcd CD database file
#
# Track frame offsets:
#	150
#	16635
#	33435
#	47122
#	57727
#	72137
#	90502
#	107535
#	127217
#	146887
#	164040
#	187470
#	202210
#	219545
#	236700
#
# Disc length: 3448 seconds
#
# Revision: 3
# Processed by: cddbd v1.4PL0 Copyright (c) Steve Scherf et al.
# Submitted via: CDex 1.50Beta7
#
DISCID=ef0d760f
DTITLE=The Mavericks - The Best of the Mavericks
DYEAR=1999
DGENRE=Country
TTITLE0=Things I Cannot Change
TTITLE1=World Without Love
TTITLE2=Are You Lonesome Tonight
TTITLE3=Think Of Me (When You're Lonely)
TTITLE4=Here Comes My Baby
TTITLE5=Pizziricco
TTITLE6=I've Got This Feeling
TTITLE7=Dance The Night Away
TTITLE8=All You Ever Do Is Bring Me Down
TTITLE9=Here Comes The Rain
TTITLE10=I Should Have Been True
TTITLE11=There Goes My Heart
TTITLE12=What A Crying Shame
TTITLE13=This Broken Heart
TTITLE14=From Hell To Paradise
EXTD=\n YEAR: 1999
EXTT0=
EXTT1=
EXTT2=
EXTT3=
EXTT4=
EXTT5=
EXTT6=
EXTT7=
EXTT8=
EXTT9=
EXTT10=
EXTT11=
EXTT12=
EXTT13=
EXTT14=
PLAYORDER=
